
<svg width="218px" height="277px" viewBox="0 0 218 277" version="1.1" xmlns="http://www.w3.org/2000/svg" xmlns:xlink="http://www.w3.org/1999/xlink">
    <defs>
        <path d="M0.777,70.603 C0.777,50.804 26.336,27.27 77.455,0 L218,128.834 L56.781,247 C19.444,149.201 0.777,90.401 0.777,70.603 Z" id="path-1"></path>
        <linearGradient x1="60.123376%" y1="35.15625%" x2="60.123376%" y2="135.15625%" id="linearGradient-3">
            <stop stop-color="#43E695" offset="0%"></stop>
            <stop stop-color="#3BB2B8" offset="100%"></stop>
        </linearGradient>
        <path d="M0.777,70.603 C0.777,90.401 19.444,149.201 56.781,247 L218,128.834 L77.455,0 C26.336,27.27 0.777,50.804 0.777,70.603" id="path-4"></path>
        <linearGradient x1="5.85781174%" y1="13.407004%" x2="96.072522%" y2="91.0550607%" id="linearGradient-6">
            <stop stop-color="#43E695" offset="0%"></stop>
            <stop stop-color="#3BB2B8" offset="100%"></stop>
        </linearGradient>
    </defs>
    <g id="Page-1" stroke="none" stroke-width="1" fill="none" fill-rule="evenodd">
        <g id="Desktop-HD" transform="translate(-1083.000000, -360.000000)">
            <g id="Page-1" transform="translate(1083.000000, 360.000000)">
                <g id="Group-3">
                    <mask id="mask-2" fill="white">
                        <use xlink:href="#path-1"></use>
                    </mask>
                    <g id="Clip-2"></g>
                    <polygon id="Fill-1" fill="url(#linearGradient-3)" mask="url(#mask-2)" points="-865 664 575 664 575 -360 -865 -360"></polygon>
                </g>
                <g id="Group-6">
                    <mask id="mask-5" fill="white">
                        <use xlink:href="#path-4"></use>
                    </mask>
                    <g id="Clip-5"></g>
                    <path d="M0.777,70.603 C0.777,90.401 19.444,149.201 56.781,247 L218,128.834 L77.455,0 C26.336,27.27 0.777,50.804 0.777,70.603" id="Fill-4" fill="url(#linearGradient-6)" mask="url(#mask-5)"></path>
                </g>
                <polygon id="Fill-7" fill="#8E8E8E" points="63.3302 254.7547 140.8172 276.9747 163.0362 199.4867"></polygon>
            </g>
        </g>
    </g>
</svg>
